<?xml version="1.0" standalone="no"?>
<!DOCTYPE svg PUBLIC "-//W3C//DTD SVG 20010904//EN"
 "http://www.w3.org/TR/2001/REC-SVG-20010904/DTD/svg10.dtd">
<svg version="1.0" xmlns="http://www.w3.org/2000/svg"
 width="512.000000pt" height="512.000000pt" viewBox="0 0 512.000000 512.000000"
 preserveAspectRatio="xMidYMid meet">

<g transform="translate(0.000000,512.000000) scale(0.100000,-0.100000)"
fill="#000000" stroke="none">
<path d="M729 792 c12 -22 166 -163 266 -243 286 -229 645 -399 1020 -484 344
-76 728 -79 1081 -5 454 94 889 323 1222 646 l107 103 -119 1 -119 0 -56 -48
c-349 -301 -769 -493 -1234 -563 -184 -28 -490 -28 -674 0 -456 69 -860 250
-1205 538 l-86 73 -106 0 c-101 0 -106 -1 -97 -18z"/>
<path d="M1090 805 c0 -2 35 -31 78 -63 484 -369 1064 -527 1672 -456 246 28
505 106 740 222 116 57 341 202 415 266 l40 35 -128 1 -127 0 -79 -49 c-297
-186 -613 -290 -993 -326 l-68 -7 0 171 0 171 -80 0 -80 0 0 -171 0 -170 -72
6 c-113 10 -305 43 -406 70 -190 51 -420 152 -583 256 l-76 49 -126 0 c-70 0
-127 -2 -127 -5z"/>
</g>
</svg>
